<svg id="Laag_1" data-name="Laag 1" xmlns="http://www.w3.org/2000/svg" viewBox="0 0 85.5 123"><defs><style>.cls-1{fill:#00aad2;}.cls-2{fill:#ffd230;}.cls-3{fill:#d01317;}</style></defs><title>Brent</title><polygon class="cls-1" points="51 3.75 47.25 0 40.5 2.25 32.25 2.25 24 2.25 16.5 5.25 12.71 9.04 34.16 32.52 57.68 7.94 57 7.5 51 3.75"/><polygon class="cls-2" points="38.85 87.05 34.16 32.52 20.5 65.17 38.85 87.05"/><polygon class="cls-2" points="71.92 82.97 83.56 81.54 85.5 74.25 85.5 66 84 57 81.75 54.75 81.75 45 78 33 74.25 24 67.5 14.25 57.68 7.94 34.16 32.52 71.92 82.97"/><polygon class="cls-1" points="75.68 88 75.75 87.75 78 87 82.5 85.5 83.56 81.54 71.92 82.97 75.68 88"/><polygon class="cls-3" points="71.92 82.97 34.16 32.52 38.85 87.05 71.92 82.97"/><polygon class="cls-2" points="38.85 87.05 68.76 104.29 73.5 96 75.68 88 71.92 82.97 38.85 87.05"/><polygon class="cls-3" points="14.54 79.42 38.85 87.05 20.5 65.17 14.54 79.42"/><polygon class="cls-1" points="24.99 114.19 32.25 120 41.25 122.77 38.85 87.05 24.99 114.19"/><polygon class="cls-3" points="41.25 122.77 42 123 50.25 121.5 58.5 115.5 67.5 106.5 68.76 104.29 38.85 87.05 41.25 122.77"/><polygon class="cls-1" points="34.16 32.52 0.89 40.07 0.75 40.5 0.75 41.6 20.5 65.17 34.16 32.52"/><polygon class="cls-3" points="16.86 106.11 17.25 106.5 24.75 114 24.99 114.19 38.85 87.05 16.86 106.11"/><polygon class="cls-1" points="14.54 79.42 9.27 92.03 11.25 96 14.25 103.5 16.86 106.11 38.85 87.05 14.54 79.42"/><polygon class="cls-2" points="2.25 72.85 2.25 75.87 14.54 79.42 2.25 72.85"/><polygon class="cls-3" points="12.71 9.04 11.25 10.5 9 14.25 6 18 6 24 6 29.25 3 33.75 0.89 40.07 34.16 32.52 12.71 9.04"/><polygon class="cls-2" points="3.65 84.77 4.5 87.75 8.25 90 9.27 92.03 14.54 79.42 3.65 84.77"/><polygon class="cls-3" points="2.25 75.87 2.25 77.25 3 82.5 3.65 84.77 14.54 79.42 2.25 75.87"/><polygon class="cls-1" points="0.75 43.12 0.75 48.75 1.5 57 1.5 60.75 0 63.75 2.25 69.75 2.25 72.85 14.54 79.42 0.75 43.12"/><polygon class="cls-2" points="20.5 65.17 0.75 41.6 0.75 43.12 14.54 79.42 20.5 65.17"/></svg>